<svg viewBox="0 0 600 300" height="300mm" width="600mm" xmlns="http://www.w3.org/2000/svg" xmlns:svg="http://www.w3.org/2000/svg" xmlns:xlink="http://www.w3.org/1999/xlink">
    <g fill="none" stroke="red" stroke-width="0.2">
        <g id="left" transform="translate(372,2)">
           <path d="M0 2 L4.5 2 L4.5 0 L133 0 L133 2 L137.5 2 L137.5 58 L0 58 Z"/>
            <circle cx="7.5" cy="9.5"  r="1.55"/>
            <circle cx="130" cy="9.5"  r="1.55"/>
            <circle cx="7.5" cy="48.5" r="1.55"/>
            <circle cx="130" cy="48.5" r="1.55"/>
            <circle id="vin" cx="27" cy="40" r="5.5"/>
            <rect id="switch" width="9" height="13.2" x="22" y="20"/>
        </g>
        <g id="right" transform="translate(372,63)">
            <path d="M0 2 L4.5 2 L4.5 0 L133 0 L133 2 L137.5 2 L137.5 58 L0 58 Z"/>
            <circle cx="7.5" cy="9.5"  r="1.55"/>
            <circle cx="130" cy="9.5"  r="1.55"/>
            <circle cx="7.5" cy="48.5" r="1.55"/>
            <circle cx="130" cy="48.5" r="1.55"/>
            <circle id="vout" cx="110" cy="50" r="5.5"/>
        </g>
        <g id="front" transform="translate(2,4)">  
            <rect x="0" y="0" width="366" height="56"/>
            <circle cx="10.5" cy="7.5" r="1.55"/>
            <circle cx="355.5" cy="7.5" r="1.55"/>
            <circle cx="10.5" cy="46.5" r="1.55"/>
            <circle cx="355.5" cy="46.5" r="1.55"/>
            <circle cx="183" cy="7.5" r="1.55"/>
            <circle cx="183" cy="46.5" r="1.55"/>
        </g>
        <g id="back" transform="translate(2,65)">
            <rect x="0" y="0" width="366" height="56" />
            <circle cx="10.5"  cy="7.5"  r="1.55"/>
            <circle cx="355.5" cy="7.5"  r="1.55"/>
            <circle cx="10.5"  cy="46.5" r="1.55"/>
            <circle cx="355.5" cy="46.5" r="1.55"/>
            <circle cx="183"   cy="7.5"  r="1.55"/>
            <circle cx="183"   cy="46.5" r="1.55"/>
        </g>
        <g id="bottom" transform="translate(5,124)">
            <rect x="0" y="0" width="360" height="137.5"/>
            <circle cx="7.5"   cy="7.5" r="1.55"/>
            <circle cx="352.5" cy="7.5" r="1.55"/>
            <circle cx="7.5"   cy="130" r="1.55"/>
            <circle cx="352.5" cy="130" r="1.55"/>
            <circle cx="180"   cy="7.5" r="1.55"/>
            <circle cx="180"   cy="130" r="1.55"/>

            <!--g id="power" transform="translate(47,87)"> 
                 <circle cx="0"      cy="0"    r="1.55"/>
                 <circle cx="83.82"  cy="1.27" r="1.55"/>
                 <circle cx="129.54" cy="1.27" r="1.55"/>
                 <circle cx="175.26" cy="1.27" r="1.55"/>
                 <circle cx="220.98" cy="1.27" r="1.55"/>
                 <circle cx="256.54" cy="1.27" r="1.55"/>
            </g-->
        </g> 
    </g>
</svg>